<?xml version="1.0" encoding="UTF-8"?>

<svg xmlns="http://www.w3.org/2000/svg" viewBox="0 0 18432 18432" width="256" height="256">
<metadata>
Created by potrace 1.16, written by Peter Selinger 2001-2019
</metadata>
<g transform="translate(0.000000,18432.000000) scale(1.001739,-1.001739)"
fill="white" stroke="none">
<path d="M3825 17629 c-22 -4 -70 -8 -107 -8 -77 -1 -76 1 -80 -106 -3 -60 -3
-60 -183 -70 -99 -5 -186 -14 -192 -18 -8 -5 -13 -31 -13 -68 0 -90 -8 -99
-86 -99 -36 0 -75 -5 -87 -12 -12 -7 -58 -15 -102 -18 -80 -5 -80 -5 -85 -76
-7 -96 -14 -103 -113 -106 -82 -3 -82 -3 -87 -79 -6 -99 -16 -109 -95 -109
-82 0 -95 -14 -95 -101 0 -39 -5 -70 -12 -77 -7 -7 -15 -49 -18 -95 -5 -82 -5
-82 -69 -85 -36 -2 -74 -10 -87 -19 -22 -14 -24 -22 -24 -94 0 -67 -3 -82 -21
-100 -18 -18 -30 -21 -68 -16 -68 7 -71 4 -71 -68 0 -34 -7 -82 -15 -105 -8
-23 -15 -73 -15 -111 0 -62 -2 -70 -25 -85 -19 -12 -38 -15 -75 -11 -41 5 -51
3 -59 -11 -5 -9 -17 -179 -26 -377 -10 -198 -21 -364 -25 -368 -4 -4 -33 -9
-64 -11 -36 -2 -62 -9 -67 -17 -5 -8 -8 -39 -7 -69 3 -55 3 -55 161 -58 158
-3 158 -3 156 51 -2 46 2 59 27 92 25 33 29 48 31 108 1 45 7 73 15 79 7 4 39
7 71 6 81 -3 101 18 104 110 1 37 2 70 2 75 1 4 31 7 69 7 99 0 112 12 112
104 0 43 5 77 12 84 7 7 41 12 83 12 47 0 78 5 91 15 12 9 44 14 92 15 72 0
72 0 72 63 0 88 20 107 116 108 118 0 283 16 297 28 10 7 12 27 9 65 -6 69
-10 68 208 64 165 -3 165 -3 168 -65 3 -62 3 -62 85 -67 45 -3 138 -9 207 -14
69 -5 240 -15 380 -22 140 -7 261 -17 268 -23 7 -6 12 -34 12 -72 0 -46 4 -64
15 -69 8 -3 173 -10 367 -16 194 -7 405 -15 468 -18 115 -7 115 -7 118 -57 5
-102 -24 -93 272 -91 295 1 280 -3 280 82 0 35 5 54 14 57 7 3 110 8 227 12
305 8 681 25 702 31 14 4 17 17 17 69 0 90 4 92 217 101 132 5 176 10 185 21
6 8 12 42 12 76 1 62 1 62 81 68 44 4 95 12 113 19 19 7 60 11 99 8 80 -5 93
-19 93 -98 0 -52 -3 -59 -39 -94 -36 -35 -43 -38 -87 -34 -49 3 -49 3 -52 -62
-3 -54 -8 -70 -29 -92 -20 -21 -25 -36 -25 -78 1 -28 -3 -63 -8 -76 -9 -22
-15 -24 -73 -24 -86 0 -97 -13 -97 -111 0 -45 -5 -80 -12 -87 -7 -7 -40 -12
-78 -12 -36 0 -70 -4 -76 -8 -6 -4 -13 -44 -16 -89 -6 -105 -24 -137 -73 -127
-19 3 -47 3 -61 0 -24 -6 -26 -10 -22 -60 3 -48 0 -57 -24 -80 -26 -24 -28
-30 -28 -110 0 -98 4 -94 -105 -98 -60 -3 -60 -3 -66 -88 -3 -47 -11 -95 -17
-107 -7 -12 -12 -47 -12 -78 0 -84 -9 -95 -79 -95 -41 0 -62 -5 -72 -16 -7 -9
-17 -59 -22 -112 -24 -277 -13 -247 -94 -250 -56 -2 -75 -7 -82 -20 -5 -9 -12
-91 -16 -182 -4 -90 -11 -175 -16 -187 -8 -21 -15 -23 -71 -23 -35 0 -68 -4
-75 -8 -6 -4 -14 -41 -16 -82 -7 -92 -25 -372 -35 -535 -7 -120 -7 -120 -62
-117 -87 5 -86 7 -101 -223 -10 -149 -14 -464 -14 -1227 0 -782 -3 -1030 -12
-1039 -9 -9 -72 -9 -280 1 -390 19 -1394 -2 -1427 -29 -12 -10 -16 -31 -16
-87 0 -52 -4 -74 -12 -75 -7 -1 -38 -3 -68 -4 -144 -7 -267 -18 -282 -27 -15
-7 -18 -22 -18 -83 0 -88 -12 -100 -91 -93 -75 8 -89 -7 -89 -95 0 -40 -4 -79
-10 -87 -6 -10 -32 -16 -82 -18 -40 -2 -79 -9 -85 -14 -10 -8 -13 -55 -13
-174 0 -146 2 -164 18 -172 17 -8 366 8 375 18 3 3 1 25 -3 50 -5 25 -5 48 -2
52 10 10 334 22 367 14 26 -7 27 -9 23 -64 -3 -63 -31 -55 267 -76 33 -2 154
-8 268 -13 243 -9 237 -7 237 -110 0 -77 -17 -71 272 -89 86 -5 86 -5 90 -89
1 -46 7 -87 11 -92 5 -4 48 -10 95 -13 87 -5 87 -5 92 -85 3 -44 9 -86 13 -92
5 -9 33 -13 77 -13 89 0 100 -10 100 -95 0 -90 17 -109 101 -109 64 -1 64 -1
72 -86 4 -47 10 -124 13 -172 7 -108 14 -116 109 -120 70 -3 70 -3 76 -118 10
-179 10 -793 0 -809 -7 -11 -59 -13 -272 -12 -145 1 -313 5 -374 9 -110 7
-110 7 -115 69 -3 34 -8 64 -12 68 -3 4 -80 7 -169 7 -123 -1 -164 -4 -170
-14 -5 -7 -9 -34 -9 -60 0 -35 -5 -50 -17 -56 -10 -6 -135 -15 -278 -21 -143
-7 -270 -14 -282 -17 -21 -4 -23 -10 -23 -68 0 -96 0 -96 -85 -96 -57 0 -78
-4 -97 -20 -18 -14 -44 -20 -94 -22 -69 -3 -69 -3 -72 -63 -4 -72 8 -85 74
-77 30 3 56 -1 77 -11 24 -12 93 -19 286 -27 140 -7 265 -16 279 -21 23 -9 24
-13 20 -64 -3 -41 -1 -59 10 -68 14 -11 68 -18 267 -33 44 -3 86 -11 93 -16 7
-7 12 -36 12 -79 0 -83 7 -89 113 -89 49 0 78 -4 85 -13 6 -7 12 -46 14 -87 3
-75 3 -75 84 -80 50 -4 88 -11 99 -20 10 -8 48 -17 84 -20 66 -5 66 -5 63 -61
-3 -51 -1 -59 33 -104 34 -43 37 -53 33 -96 -7 -69 2 -79 73 -79 55 0 60 -2
69 -26 6 -14 10 -54 10 -90 0 -45 6 -77 20 -104 14 -27 20 -59 20 -104 0 -74
-1 -73 95 -78 50 -3 50 -3 58 -143 12 -208 4 -1185 -10 -1210 -9 -16 -22 -20
-70 -20 -58 0 -58 0 -59 -62 0 -47 -5 -68 -19 -83 -17 -18 -21 -47 -30 -201
-7 -128 -14 -182 -23 -188 -7 -4 -35 -6 -61 -3 -79 7 -91 -5 -91 -96 -1 -48
-6 -86 -15 -102 -8 -14 -14 -52 -15 -85 0 -34 -5 -66 -12 -73 -7 -7 -39 -12
-73 -12 -56 0 -63 -2 -73 -25 -7 -14 -12 -57 -12 -95 0 -94 -15 -110 -105
-110 -79 0 -70 23 -90 -240 -9 -113 -5 -107 -89 -112 -96 -4 -106 -13 -106
-95 0 -94 -8 -103 -83 -103 -89 0 -107 -15 -107 -90 0 -33 -5 -71 -12 -85 -10
-23 -16 -25 -79 -25 -82 0 -89 -8 -89 -99 0 -84 -18 -101 -105 -101 -78 0 -85
-9 -85 -104 0 -40 -5 -68 -12 -72 -7 -4 -50 -10 -95 -12 -96 -5 -91 0 -95
-117 -3 -70 -3 -70 -93 -75 -90 -5 -90 -5 -95 -85 -3 -44 -9 -86 -13 -92 -5
-8 -32 -13 -75 -13 -96 0 -112 -13 -112 -94 0 -35 -5 -67 -12 -74 -7 -7 -40
-12 -78 -12 -90 0 -110 -20 -110 -108 0 -74 -12 -84 -97 -81 -76 3 -93 -17
-93 -111 0 -80 -1 -80 -100 -80 -83 0 -90 -8 -90 -99 0 -75 13 -109 43 -116
13 -4 97 -2 187 3 192 11 190 10 190 112 0 67 0 67 103 75 56 5 129 10 162 12
286 16 270 10 275 96 3 54 10 81 20 87 8 5 86 10 173 10 115 0 167 4 192 14
35 15 35 15 35 80 0 66 0 66 58 66 31 0 75 7 97 14 23 8 109 17 205 21 91 4
171 12 177 17 8 7 13 35 13 74 0 52 3 65 19 74 11 5 86 10 168 10 111 1 158 5
188 17 22 8 72 18 112 22 39 3 75 10 79 14 5 5 7 35 6 67 -3 58 -3 58 50 65
29 3 67 5 83 5 90 -2 443 23 463 33 13 6 49 12 80 12 57 0 57 0 60 62 2 39 8
66 18 74 18 15 49 16 550 29 210 5 393 14 406 19 23 9 24 13 20 64 -3 39 0 57
9 63 27 17 182 25 764 35 658 12 1676 0 1714 -21 18 -9 21 -20 21 -74 0 -63 0
-63 103 -71 132 -10 165 -11 512 -20 160 -4 300 -11 312 -16 20 -7 22 -16 25
-81 3 -73 3 -73 78 -80 63 -5 262 -19 440 -30 45 -3 45 -3 50 -73 5 -70 5 -70
80 -75 41 -3 86 -12 100 -20 14 -8 66 -18 115 -22 255 -20 235 -13 235 -78 0
-80 16 -92 128 -101 48 -3 103 -11 122 -18 19 -6 59 -11 88 -9 63 2 71 -6 64
-68 -3 -30 0 -51 12 -69 15 -23 22 -25 99 -25 111 0 121 -8 124 -97 1 -68 1
-68 75 -73 40 -3 80 -10 88 -15 8 -5 53 -12 100 -15 85 -5 85 -5 88 -80 2 -41
8 -80 14 -87 7 -8 36 -13 82 -13 51 0 81 -5 106 -19 34 -18 35 -19 32 -74 -4
-54 -3 -56 23 -63 14 -3 43 -4 65 0 35 5 41 3 60 -24 20 -28 25 -30 90 -30 98
0 100 -1 100 -74 0 -41 6 -69 16 -85 16 -22 20 -23 108 -17 50 3 127 9 171 13
80 8 80 8 85 78 4 62 8 71 30 82 14 7 55 13 93 13 63 0 68 2 77 26 6 14 10 54
10 89 0 78 9 85 109 85 82 0 79 -3 83 115 3 70 3 70 90 75 47 3 89 8 93 11 3
4 7 38 8 76 3 93 12 103 94 103 95 0 103 7 103 88 0 40 5 73 12 80 7 7 39 12
75 12 86 0 103 19 103 111 0 78 1 79 93 79 34 0 69 5 77 10 11 6 16 32 18 90
4 76 6 82 29 91 13 5 53 9 88 9 39 0 67 5 71 12 4 7 10 50 12 95 5 83 5 83 79
83 105 0 113 6 113 86 0 95 7 104 84 104 93 0 114 20 118 108 3 67 3 67 68 70
54 3 70 7 92 29 23 22 28 35 30 92 3 66 3 66 74 69 94 4 108 18 110 112 1 37
4 73 8 79 4 6 36 11 77 11 97 0 109 8 109 74 0 29 3 68 6 85 6 31 7 31 73 31
99 0 111 12 111 109 0 106 -8 115 -107 121 -78 5 -78 5 -79 74 -1 88 -11 96
-115 96 -94 0 -102 -7 -109 -104 -5 -71 -5 -71 -88 -76 -107 -6 -122 -21 -122
-116 0 -64 0 -64 -57 -64 -32 0 -76 -7 -98 -15 -22 -8 -72 -14 -111 -15 -46 0
-75 -5 -82 -13 -6 -7 -12 -44 -14 -82 -3 -70 -3 -70 -183 -70 -180 0 -180 0
-183 70 -2 38 -7 74 -13 81 -5 7 -48 13 -98 16 -49 2 -95 9 -103 16 -8 6 -43
12 -78 14 -64 3 -64 3 -61 59 2 48 -1 61 -22 85 -23 26 -32 29 -103 32 -44 2
-83 8 -89 13 -5 5 -8 36 -7 68 4 81 -8 91 -107 91 -48 0 -82 5 -89 13 -7 6
-49 14 -95 17 -82 5 -82 5 -85 70 -4 91 -15 100 -117 100 -67 0 -87 4 -108 20
-18 15 -40 20 -81 20 -56 0 -56 0 -56 65 0 79 -8 85 -118 85 -43 0 -93 5 -110
11 -17 6 -62 11 -99 12 -68 2 -68 2 -71 75 -2 62 -6 74 -25 86 -16 10 -87 15
-281 20 -183 4 -263 9 -273 18 -11 9 -14 25 -10 59 9 72 -4 82 -110 92 -186
17 -562 25 -1208 26 -830 1 -1329 -12 -1383 -35 -23 -11 -59 -16 -94 -15 -66
2 -72 -4 -73 -73 0 -47 -2 -50 -30 -57 -16 -4 -230 -12 -474 -18 -295 -8 -449
-15 -458 -22 -9 -8 -13 -36 -13 -85 0 -68 -2 -74 -22 -78 -13 -3 -106 -7 -208
-10 -193 -6 -238 -8 -408 -21 -103 -8 -103 -8 -101 -59 3 -61 -6 -92 -28 -100
-9 -4 -127 -9 -262 -13 -182 -4 -252 -3 -269 6 -20 10 -22 19 -22 85 0 86 0
86 94 86 84 0 96 13 96 108 0 72 0 72 60 72 33 0 77 7 97 15 19 8 64 15 100
15 93 0 103 8 103 79 0 86 20 107 97 103 86 -4 107 15 104 92 -3 77 6 86 90
86 94 0 106 14 111 130 3 55 3 55 85 60 48 3 88 10 95 18 8 8 14 45 17 92 3
80 3 80 70 80 43 0 76 6 96 17 17 9 59 19 95 22 65 6 65 6 62 54 -5 59 10 97
48 126 26 19 29 28 32 83 3 63 3 63 60 60 49 -3 58 -1 70 18 24 40 73 62 130
59 53 -3 53 -3 58 61 8 106 36 132 144 134 51 1 51 1 52 63 0 38 6 68 15 79 9
10 16 49 19 103 5 86 5 86 85 91 44 3 86 9 93 13 8 5 12 33 12 78 0 101 6 109
89 109 88 0 101 13 101 99 0 92 8 101 85 101 77 0 85 9 85 100 0 34 6 71 12
83 7 12 15 56 18 97 5 75 5 75 82 80 42 3 80 9 84 13 5 5 11 52 14 106 3 62
10 104 19 115 9 11 12 30 8 61 -8 54 6 65 82 65 46 0 52 3 66 30 9 18 15 56
15 99 0 38 4 81 10 95 9 24 14 26 74 26 77 0 85 9 78 80 -3 35 1 55 14 75 14
22 20 62 27 204 6 97 12 178 14 181 2 2 31 3 63 2 97 -5 94 -12 109 299 9 175
18 273 27 290 12 24 16 26 61 19 26 -4 51 -6 56 -3 4 2 7 37 7 77 0 44 5 77
13 84 8 9 14 72 19 200 9 241 20 361 37 390 11 21 19 23 69 20 57 -3 57 -3 64
147 27 587 31 928 31 2495 -1 1373 -4 1760 -19 2270 -19 615 -19 615 -54 612
-19 -2 -43 -5 -52 -8 -11 -3 -23 5 -34 21 -15 22 -17 69 -22 368 -5 374 -1
412 44 423 13 3 40 3 59 0 25 -5 37 -3 40 6 3 7 10 132 15 278 12 324 22 466
33 477 5 4 39 10 75 13 67 5 67 5 64 53 -3 34 2 56 14 75 18 26 21 49 40 315
6 77 6 77 66 77 33 0 72 7 88 15 29 15 30 17 30 93 0 47 5 83 12 90 7 7 40 12
78 12 92 0 106 12 102 89 -4 81 14 100 87 93 47 -4 55 -2 82 24 25 24 29 35
29 86 0 69 17 83 89 75 26 -3 55 0 66 6 11 6 57 14 102 17 44 3 88 12 97 19
12 10 16 31 16 76 0 38 5 66 13 73 6 5 86 13 177 17 207 8 210 10 210 104 0
53 4 70 15 75 9 3 129 8 268 12 308 8 301 5 295 104 -2 38 -7 73 -12 77 -17
17 -238 21 -671 11 -247 -5 -460 -13 -472 -18 -21 -9 -23 -17 -23 -75 0 -44
-4 -67 -12 -70 -7 -2 -177 -12 -378 -21 -201 -9 -370 -20 -376 -26 -7 -5 -10
-24 -7 -48 3 -21 3 -50 -1 -64 -6 -25 -10 -26 -72 -26 -35 0 -79 -6 -97 -14
-20 -8 -98 -16 -197 -21 -91 -4 -173 -11 -182 -16 -14 -8 -18 -23 -18 -69 0
-78 -13 -90 -94 -90 -35 0 -80 -7 -99 -15 -21 -8 -67 -15 -106 -15 -79 0 -81
-2 -81 -89 0 -31 -5 -62 -12 -69 -7 -7 -42 -12 -88 -12 -46 0 -81 -5 -88 -12
-7 -7 -12 -41 -12 -83 0 -42 -5 -76 -12 -83 -7 -7 -42 -12 -88 -12 -46 0 -81
-5 -88 -12 -7 -7 -12 -40 -12 -79 0 -99 0 -99 -84 -99 -96 -1 -106 -9 -106
-94 0 -97 -7 -106 -84 -106 -39 0 -68 -5 -74 -12 -5 -7 -12 -48 -14 -90 -5
-104 -22 -123 -111 -123 -62 0 -62 0 -65 -65 -2 -36 -7 -69 -13 -74 -5 -6 -9
-48 -9 -95 0 -121 -9 -135 -90 -141 -65 -5 -65 -5 -70 -70 -3 -36 -13 -76 -22
-90 -12 -20 -17 -64 -23 -210 -4 -102 -10 -191 -15 -199 -5 -9 -27 -14 -66
-15 -59 -1 -59 -1 -59 -56 -1 -31 -8 -71 -17 -90 -12 -28 -20 -129 -37 -490
-12 -250 -23 -504 -24 -565 -2 -122 7 -111 -92 -102 -19 2 -20 -4 -20 -198 0
-200 0 -200 40 -197 22 2 45 8 52 14 9 7 14 3 17 -14 3 -12 7 -216 10 -453 17
-1689 53 -3290 76 -3350 8 -20 15 -24 35 -20 14 3 36 7 50 10 20 4 26 0 32
-22 10 -36 10 -1090 0 -1126 -6 -23 -10 -26 -27 -17 -16 9 -89 15 -91 8 -3
-12 -32 -425 -35 -503 -12 -315 -35 -803 -40 -823 -4 -21 -9 -23 -58 -21 -29
1 -58 -1 -64 -5 -7 -4 -12 -34 -12 -76 0 -38 -5 -81 -11 -97 -6 -15 -13 -104
-16 -198 -4 -140 -9 -177 -24 -207 -12 -24 -19 -58 -19 -96 0 -32 -2 -61 -5
-64 -3 -2 -28 -2 -56 2 -47 6 -51 5 -64 -19 -8 -17 -15 -87 -20 -196 -5 -139
-10 -178 -27 -213 -13 -29 -19 -57 -16 -90 3 -47 3 -47 -62 -50 -36 -2 -69 -8
-75 -13 -5 -5 -13 -54 -17 -107 -22 -285 -16 -266 -83 -264 -47 2 -66 -2 -85
-17 -23 -18 -25 -29 -30 -116 -7 -111 -12 -118 -82 -112 -69 6 -78 -3 -78 -75
0 -44 -5 -67 -17 -81 -13 -13 -19 -40 -21 -95 -4 -89 -14 -102 -72 -95 -87 12
-110 -16 -110 -133 0 -38 -5 -66 -12 -70 -6 -4 -42 -7 -79 -6 -42 1 -70 -2
-75 -9 -4 -7 -8 -45 -9 -85 -2 -96 -10 -104 -95 -104 -99 0 -100 0 -100 -81 0
-37 -7 -90 -16 -116 -10 -28 -14 -63 -11 -86 8 -62 3 -67 -73 -67 -99 0 -114
-15 -118 -118 -4 -80 -4 -80 -84 -84 -104 -4 -118 -19 -118 -119 0 -69 0 -69
-63 -69 -42 0 -71 -5 -87 -17 -36 -25 -39 -32 -33 -83 9 -75 -5 -90 -82 -90
-57 0 -66 -3 -85 -27 -17 -21 -20 -38 -18 -83 1 -30 -1 -61 -5 -67 -5 -9 -33
-13 -78 -13 -63 0 -72 -3 -94 -26 -21 -23 -25 -37 -25 -90 0 -64 0 -64 -62
-64 -69 -1 -96 -12 -127 -51 -18 -23 -25 -25 -75 -21 -56 4 -56 4 -56 -60 0
-61 -1 -64 -32 -83 -21 -13 -59 -22 -103 -25 -70 -5 -70 -5 -73 -82 -2 -53 -7
-80 -18 -89 -9 -7 -53 -15 -100 -17 -46 -3 -84 -7 -85 -11 0 -3 -1 -36 -2 -72
-3 -92 -11 -99 -113 -99 -74 0 -84 2 -98 22 -20 28 -22 138 -3 156 7 8 14 51
17 105 5 92 5 92 87 97 45 3 85 9 90 13 4 5 11 50 15 100 4 51 11 126 15 166
8 75 8 75 66 72 52 -2 60 0 87 28 28 27 30 35 30 99 0 100 1 102 74 102 35 0
67 5 74 12 7 7 12 40 12 80 0 50 5 76 20 100 15 24 20 51 20 99 0 82 11 93 80
87 77 -8 87 4 94 114 3 51 9 127 13 168 8 75 8 75 80 78 88 3 96 13 94 114 -1
40 5 83 14 103 14 34 16 35 69 35 70 0 86 15 79 72 -3 24 -7 45 -9 47 -2 2 8
12 21 23 23 18 25 26 25 107 0 111 6 119 90 123 65 3 65 3 71 73 3 39 10 79
16 90 6 11 14 63 18 115 21 281 13 255 75 256 69 2 98 10 104 32 2 9 7 86 11
170 10 214 6 206 91 212 69 5 69 5 84 280 8 151 19 281 23 288 5 7 11 49 15
95 7 82 7 82 77 87 70 5 70 5 77 120 3 63 11 446 18 850 6 404 14 738 16 742
3 4 32 8 64 8 97 0 90 -36 90 488 0 270 -4 463 -10 472 -6 10 -32 17 -77 20
-68 5 -68 5 -74 325 -4 176 -7 606 -8 955 -3 845 -18 1916 -29 1960 -8 35 -8
35 -67 35 -60 0 -60 0 -68 150 -4 83 -12 173 -18 200 -7 33 -9 178 -5 430 8
479 9 515 27 526 8 6 38 8 67 6 44 -3 55 0 63 15 5 10 14 216 19 474 6 251 13
460 16 465 3 5 29 9 59 9 30 0 65 4 79 9 27 11 23 -24 47 351 6 102 15 190 20
196 6 7 29 9 59 6 75 -7 90 11 90 103 0 47 5 78 15 91 9 13 14 44 15 95 0 44
5 80 12 87 7 7 39 12 74 12 86 0 94 10 94 114 0 71 3 86 21 102 17 15 20 28
17 74 -3 55 -3 55 60 58 62 3 64 4 78 37 8 19 14 65 14 103 0 39 5 73 12 80 7
7 41 12 84 12 48 0 76 4 81 13 4 6 8 47 9 89 3 107 15 122 92 119 60 -2 60 -2
64 63 3 56 8 70 33 96 25 26 28 37 26 80 -4 85 1 90 73 90 55 0 65 3 89 28 22
23 26 37 29 97 3 70 3 70 75 75 97 7 116 25 123 118 5 67 5 67 80 72 74 5 75
6 92 40 12 22 18 58 18 98 0 62 0 62 64 62 98 0 96 -2 96 101 0 90 0 90 -87
87 -88 -3 -88 -3 -91 -84 -3 -81 -3 -81 -100 -88 -326 -22 -292 -11 -292 -91
0 -56 -3 -66 -23 -79 -20 -13 -157 -25 -458 -39 -41 -2 -81 -7 -87 -11 -7 -4
-12 -31 -12 -65 0 -36 -5 -63 -13 -69 -19 -16 -682 -35 -967 -28 -385 10 -529
18 -539 30 -6 7 -11 39 -13 71 -3 60 -3 60 -93 68 -49 4 -178 11 -285 17 -268
13 -353 20 -367 32 -8 6 -13 35 -13 73 0 61 -1 64 -27 69 -16 3 -138 10 -273
16 -135 6 -255 13 -267 16 -21 4 -23 10 -23 73 0 43 -5 72 -12 78 -29 23 -473
33 -1348 32 -492 -1 -913 -5 -935 -10z"/>
</g>
</svg>